<svg width="185" height="40" viewBox="0 0 185 40" fill="none" xmlns="http://www.w3.org/2000/svg">
<path d="M16.9225 1.82654H38.5447L22.648 25.3885H1.02588L16.9225 1.82654Z" fill="#007AFF"/>
<path d="M17.869 27.5721L11.7119 36.6983H34.3597L50.2563 13.1364H33.5408L23.8014 27.5721H17.869Z" fill="#312ECB"/>
<path d="M64.7993 28.5V11.0455H68.4896V25.4574H75.9726V28.5H64.7993ZM84.3142 28.7557C82.9676 28.7557 81.8085 28.483 80.8369 27.9375C79.871 27.3864 79.1267 26.608 78.604 25.6023C78.0812 24.5909 77.8199 23.3949 77.8199 22.0142C77.8199 20.6676 78.0812 19.4858 78.604 18.4688C79.1267 17.4517 79.8625 16.6591 80.8113 16.0909C81.7659 15.5227 82.8852 15.2386 84.1693 15.2386C85.0329 15.2386 85.8369 15.3778 86.5812 15.6562C87.3312 15.929 87.9846 16.3409 88.5415 16.892C89.104 17.4432 89.5415 18.1364 89.854 18.9716C90.1665 19.8011 90.3227 20.7727 90.3227 21.8864V22.8835H79.2687V20.6335H86.9051C86.9051 20.1108 86.7915 19.6477 86.5642 19.2443C86.3369 18.8409 86.0216 18.5256 85.6182 18.2983C85.2204 18.0653 84.7574 17.9489 84.229 17.9489C83.6778 17.9489 83.1892 18.0767 82.7631 18.3324C82.3426 18.5824 82.0131 18.9205 81.7744 19.3466C81.5358 19.767 81.4136 20.2358 81.4079 20.7528V22.892C81.4079 23.5398 81.5273 24.0994 81.7659 24.571C82.0102 25.0426 82.354 25.4062 82.7971 25.6619C83.2403 25.9176 83.7659 26.0455 84.3738 26.0455C84.7773 26.0455 85.1466 25.9886 85.4818 25.875C85.817 25.7614 86.104 25.5909 86.3426 25.3636C86.5812 25.1364 86.7631 24.858 86.8881 24.5284L90.246 24.75C90.0756 25.5568 89.7261 26.2614 89.1977 26.8636C88.675 27.4602 87.9988 27.9261 87.1693 28.2614C86.3454 28.5909 85.3937 28.7557 84.3142 28.7557ZM95.4917 15.4091L97.8952 19.9858L100.358 15.4091H104.083L100.29 21.9545L104.185 28.5H100.478L97.8952 23.9744L95.3554 28.5H91.6054L95.4917 21.9545L91.7417 15.4091H95.4917ZM106.239 28.5V15.4091H109.87V28.5H106.239ZM108.063 13.7216C107.523 13.7216 107.06 13.5426 106.674 13.1847C106.293 12.821 106.103 12.3864 106.103 11.8807C106.103 11.3807 106.293 10.9517 106.674 10.5938C107.06 10.2301 107.523 10.0483 108.063 10.0483C108.603 10.0483 109.063 10.2301 109.443 10.5938C109.83 10.9517 110.023 11.3807 110.023 11.8807C110.023 12.3864 109.83 12.821 109.443 13.1847C109.063 13.5426 108.603 13.7216 108.063 13.7216ZM116.536 11.0455V28.5H112.846V11.0455H116.536ZM123.135 20.9318V28.5H119.505V15.4091H122.965V17.7188H123.118C123.408 16.9574 123.894 16.3551 124.576 15.9119C125.257 15.4631 126.084 15.2386 127.056 15.2386C127.965 15.2386 128.757 15.4375 129.434 15.8352C130.11 16.233 130.635 16.8011 131.01 17.5398C131.385 18.2727 131.573 19.1477 131.573 20.1648V28.5H127.942V20.8125C127.948 20.0114 127.743 19.3864 127.328 18.9375C126.914 18.483 126.343 18.2557 125.615 18.2557C125.127 18.2557 124.695 18.3608 124.32 18.571C123.951 18.7812 123.661 19.0881 123.451 19.4915C123.246 19.8892 123.141 20.3693 123.135 20.9318ZM141.397 15.4091V18.1364H133.514V15.4091H141.397ZM135.304 12.2727H138.934V24.4773C138.934 24.8125 138.985 25.0739 139.088 25.2614C139.19 25.4432 139.332 25.571 139.514 25.6449C139.701 25.7187 139.917 25.7557 140.161 25.7557C140.332 25.7557 140.502 25.7415 140.673 25.7131C140.843 25.679 140.974 25.6534 141.065 25.6364L141.636 28.3381C141.454 28.3949 141.198 28.4602 140.869 28.5341C140.539 28.6136 140.139 28.6619 139.667 28.679C138.792 28.7131 138.025 28.5966 137.366 28.3295C136.713 28.0625 136.204 27.6477 135.84 27.0852C135.477 26.5227 135.298 25.8125 135.304 24.9545V12.2727ZM147.495 28.7472C146.66 28.7472 145.916 28.6023 145.262 28.3125C144.609 28.017 144.092 27.5824 143.711 27.0085C143.336 26.429 143.149 25.7074 143.149 24.8438C143.149 24.1165 143.282 23.5057 143.549 23.0114C143.816 22.517 144.18 22.1193 144.64 21.8182C145.1 21.517 145.623 21.2898 146.208 21.1364C146.799 20.983 147.419 20.875 148.066 20.8125C148.828 20.733 149.441 20.6591 149.907 20.5909C150.373 20.517 150.711 20.4091 150.921 20.267C151.132 20.125 151.237 19.9148 151.237 19.6364V19.5852C151.237 19.0455 151.066 18.6278 150.725 18.3324C150.39 18.0369 149.913 17.8892 149.294 17.8892C148.64 17.8892 148.12 18.0341 147.734 18.3239C147.348 18.608 147.092 18.9659 146.967 19.3977L143.609 19.125C143.779 18.3295 144.115 17.642 144.615 17.0625C145.115 16.4773 145.759 16.0284 146.549 15.7159C147.345 15.3977 148.265 15.2386 149.311 15.2386C150.038 15.2386 150.734 15.3239 151.399 15.4943C152.069 15.6648 152.663 15.929 153.18 16.2869C153.703 16.6449 154.115 17.1051 154.416 17.6676C154.717 18.2244 154.867 18.892 154.867 19.6705V28.5H151.424V26.6847H151.322C151.112 27.0938 150.831 27.4545 150.478 27.767C150.126 28.0739 149.703 28.3153 149.208 28.4915C148.714 28.6619 148.143 28.7472 147.495 28.7472ZM148.535 26.2415C149.069 26.2415 149.541 26.1364 149.95 25.9261C150.359 25.7102 150.68 25.4205 150.913 25.0568C151.146 24.6932 151.262 24.2812 151.262 23.821V22.4318C151.149 22.5057 150.992 22.5739 150.794 22.6364C150.6 22.6932 150.382 22.7472 150.137 22.7983C149.893 22.8437 149.649 22.8864 149.404 22.9261C149.16 22.9602 148.938 22.9915 148.74 23.0199C148.313 23.0824 147.941 23.1818 147.623 23.3182C147.305 23.4545 147.058 23.6392 146.882 23.8722C146.706 24.0994 146.617 24.3835 146.617 24.7244C146.617 25.2188 146.796 25.5966 147.154 25.858C147.518 26.1136 147.978 26.2415 148.535 26.2415ZM160.974 24.733L160.983 20.3778H161.511L165.704 15.4091H169.872L164.238 21.9886H163.377L160.974 24.733ZM157.684 28.5V11.0455H161.315V28.5H157.684ZM165.866 28.5L162.014 22.7983L164.434 20.233L170.119 28.5H165.866ZM177.08 28.7557C175.733 28.7557 174.574 28.483 173.603 27.9375C172.637 27.3864 171.892 26.608 171.37 25.6023C170.847 24.5909 170.585 23.3949 170.585 22.0142C170.585 20.6676 170.847 19.4858 171.37 18.4688C171.892 17.4517 172.628 16.6591 173.577 16.0909C174.532 15.5227 175.651 15.2386 176.935 15.2386C177.799 15.2386 178.603 15.3778 179.347 15.6562C180.097 15.929 180.75 16.3409 181.307 16.892C181.87 17.4432 182.307 18.1364 182.62 18.9716C182.932 19.8011 183.088 20.7727 183.088 21.8864V22.8835H172.034V20.6335H179.671C179.671 20.1108 179.557 19.6477 179.33 19.2443C179.103 18.8409 178.787 18.5256 178.384 18.2983C177.986 18.0653 177.523 17.9489 176.995 17.9489C176.443 17.9489 175.955 18.0767 175.529 18.3324C175.108 18.5824 174.779 18.9205 174.54 19.3466C174.301 19.767 174.179 20.2358 174.174 20.7528V22.892C174.174 23.5398 174.293 24.0994 174.532 24.571C174.776 25.0426 175.12 25.4062 175.563 25.6619C176.006 25.9176 176.532 26.0455 177.139 26.0455C177.543 26.0455 177.912 25.9886 178.247 25.875C178.583 25.7614 178.87 25.5909 179.108 25.3636C179.347 25.1364 179.529 24.858 179.654 24.5284L183.012 24.75C182.841 25.5568 182.492 26.2614 181.963 26.8636C181.441 27.4602 180.764 27.9261 179.935 28.2614C179.111 28.5909 178.159 28.7557 177.08 28.7557Z" fill="#1F1F1F"/>
</svg>
