<svg width="31" height="30" viewBox="0 0 31 30" fill="none" xmlns="http://www.w3.org/2000/svg">
<path d="M17.7891 25C17.7891 25 19.0391 25 20.2891 27.5C20.2891 27.5 24.2597 21.25 27.7891 20" stroke="#DF0DB8" stroke-width="1.5" stroke-linecap="round" stroke-linejoin="round"/>
<path d="M9.66406 20H14.6641M9.66406 13.75H19.6641" stroke="#DF0DB8" stroke-width="1.5" stroke-linecap="round"/>
<path d="M9.03907 4.375C7.09432 4.43334 5.93483 4.6498 5.13253 5.45284C4.03418 6.55221 4.03418 8.32163 4.03418 11.8605V19.993C4.03418 23.5319 4.03418 25.3013 5.13253 26.4006C6.23088 27.5 7.99865 27.5 11.5342 27.5H14.6592M20.2793 4.375C22.2241 4.43334 23.3836 4.6498 24.1858 5.45285C25.2842 6.55221 25.2842 8.32163 25.2842 11.8605V16.875" stroke="#DF0DB8" stroke-width="1.5" stroke-linecap="round"/>
<path d="M9.03418 4.6875C9.03418 3.47938 10.0136 2.5 11.2217 2.5H18.0967C19.3048 2.5 20.2842 3.47938 20.2842 4.6875C20.2842 5.89562 19.3048 6.875 18.0967 6.875H11.2217C10.0136 6.875 9.03418 5.89562 9.03418 4.6875Z" stroke="#DF0DB8" stroke-width="1.5" stroke-linejoin="round"/>
</svg>
