<svg width="31" height="30" viewBox="0 0 31 30" fill="none" xmlns="http://www.w3.org/2000/svg">
<path d="M17.1475 25C17.1475 25 18.3975 25 19.6475 27.5C19.6475 27.5 23.6181 21.25 27.1475 20" stroke="#0FC254" stroke-width="1.5" stroke-linecap="round" stroke-linejoin="round"/>
<path d="M9.02246 20H14.0225M9.02246 13.75H19.0225" stroke="#0FC254" stroke-width="1.5" stroke-linecap="round"/>
<path d="M8.39747 4.375C6.45272 4.43334 5.29323 4.6498 4.49093 5.45284C3.39258 6.55221 3.39258 8.32163 3.39258 11.8605V19.993C3.39258 23.5319 3.39258 25.3013 4.49093 26.4006C5.58928 27.5 7.35705 27.5 10.8926 27.5H14.0176M19.6377 4.375C21.5825 4.43334 22.742 4.6498 23.5442 5.45285C24.6426 6.55221 24.6426 8.32163 24.6426 11.8605V16.875" stroke="#0FC254" stroke-width="1.5" stroke-linecap="round"/>
<path d="M8.39258 4.6875C8.39258 3.47938 9.37197 2.5 10.5801 2.5H17.4551C18.6632 2.5 19.6426 3.47938 19.6426 4.6875C19.6426 5.89562 18.6632 6.875 17.4551 6.875H10.5801C9.37197 6.875 8.39258 5.89562 8.39258 4.6875Z" stroke="#0FC254" stroke-width="1.5" stroke-linejoin="round"/>
</svg>
