<svg width="31" height="30" viewBox="0 0 31 30" fill="none" xmlns="http://www.w3.org/2000/svg">
<path d="M16.9683 25C16.9683 25 18.2183 25 19.4683 27.5C19.4683 27.5 23.4389 21.25 26.9683 20" stroke="#0E42DD" stroke-width="1.5" stroke-linecap="round" stroke-linejoin="round"/>
<path d="M8.84326 20H13.8433M8.84326 13.75H18.8433" stroke="#0E42DD" stroke-width="1.5" stroke-linecap="round"/>
<path d="M8.21827 4.375C6.27352 4.43334 5.11403 4.6498 4.31173 5.45284C3.21338 6.55221 3.21338 8.32163 3.21338 11.8605V19.993C3.21338 23.5319 3.21338 25.3013 4.31173 26.4006C5.41008 27.5 7.17785 27.5 10.7134 27.5H13.8384M19.4585 4.375C21.4033 4.43334 22.5628 4.6498 23.365 5.45285C24.4634 6.55221 24.4634 8.32163 24.4634 11.8605V16.875" stroke="#0E42DD" stroke-width="1.5" stroke-linecap="round"/>
<path d="M8.21338 4.6875C8.21338 3.47938 9.19277 2.5 10.4009 2.5H17.2759C18.484 2.5 19.4634 3.47938 19.4634 4.6875C19.4634 5.89562 18.484 6.875 17.2759 6.875H10.4009C9.19277 6.875 8.21338 5.89562 8.21338 4.6875Z" stroke="#0E42DD" stroke-width="1.5" stroke-linejoin="round"/>
</svg>
