<svg width="31" height="30" viewBox="0 0 31 30" fill="none" xmlns="http://www.w3.org/2000/svg">
<path d="M17.3267 25C17.3267 25 18.5767 25 19.8267 27.5C19.8267 27.5 23.7973 21.25 27.3267 20" stroke="#EA860B" stroke-width="1.5" stroke-linecap="round" stroke-linejoin="round"/>
<path d="M9.20166 20H14.2017M9.20166 13.75H19.2017" stroke="#EA860B" stroke-width="1.5" stroke-linecap="round"/>
<path d="M8.57666 4.375C6.63191 4.43334 5.47243 4.6498 4.67013 5.45284C3.57178 6.55221 3.57178 8.32163 3.57178 11.8605V19.993C3.57178 23.5319 3.57178 25.3013 4.67013 26.4006C5.76848 27.5 7.53625 27.5 11.0718 27.5H14.1968M19.8169 4.375C21.7617 4.43334 22.9212 4.6498 23.7234 5.45285C24.8218 6.55221 24.8218 8.32163 24.8218 11.8605V16.875" stroke="#EA860B" stroke-width="1.5" stroke-linecap="round"/>
<path d="M8.57178 4.6875C8.57178 3.47938 9.55116 2.5 10.7593 2.5H17.6343C18.8424 2.5 19.8218 3.47938 19.8218 4.6875C19.8218 5.89562 18.8424 6.875 17.6343 6.875H10.7593C9.55116 6.875 8.57178 5.89562 8.57178 4.6875Z" stroke="#EA860B" stroke-width="1.5" stroke-linejoin="round"/>
</svg>
