<svg xmlns="http://www.w3.org/2000/svg" width="17" height="18" viewBox="0 0 17 18" fill="none">
  <mask id="mask0_691_11726" style="mask-type:alpha" maskUnits="userSpaceOnUse" x="0" y="0" width="18" height="19">
    <rect y="0.5" width="18" height="18" fill="#C4C4C4"/>
  </mask>
  <g mask="url(#mask0_691_11726)">
    <path d="M22.6073 14.3485H-4.82129V15.7307H22.6073V14.3485Z" fill="#B22234"/>
    <path d="M7.94434 0.5V1.19107V1.88214H22.6068V0.5H7.94434Z" fill="#B22234"/>
    <path d="M22.6068 1.88208H7.94434V3.26422H22.6068V1.88208Z" fill="white"/>
    <path d="M22.6068 3.2699H7.94434V4.65204H22.6068V3.2699Z" fill="#B22234"/>
    <path d="M22.6068 4.65149H7.94434V6.03363H22.6068V4.65149Z" fill="white"/>
    <path d="M22.6068 6.03931H7.94434V7.42145H22.6068V6.03931Z" fill="#B22234"/>
    <path d="M22.6068 7.42139H7.94434V8.80353H22.6068V7.42139Z" fill="white"/>
    <path d="M22.6068 8.80872H7.94434V10.1909H22.6068V8.80872Z" fill="#B22234"/>
    <path d="M22.6073 10.1913H-4.82129V11.5734H22.6073V10.1913Z" fill="white"/>
    <path d="M22.6073 11.5785H-4.82129V12.9606H22.6073V11.5785Z" fill="#B22234"/>
    <path d="M22.6073 15.7301H-4.82129V17.1122H22.6073V15.7301Z" fill="white"/>
    <path d="M22.6073 17.1178H-4.82129V18.4999H22.6073V17.1178Z" fill="#B22234"/>
    <path d="M-4.82129 0.5V1.19107V1.88214V10.1911H7.94478V1.88214V1.19107V0.5H-4.82129Z" fill="#3C3B6E"/>
    <path d="M0.333431 2.40726L0.440574 2.72334H0.772716C0.815573 2.72334 0.831645 2.77691 0.799502 2.80369L0.531645 3.00191L0.633431 3.31798C0.644145 3.36084 0.601288 3.39298 0.563788 3.36619L0.295931 3.17334L0.028074 3.36619C-0.00942601 3.39298 -0.0522833 3.35548 -0.041569 3.31798L0.0602167 3.00191L-0.20764 2.80369C-0.239783 2.77691 -0.223712 2.72334 -0.180855 2.72334H0.151288L0.258431 2.40726C0.258431 2.36441 0.317359 2.36441 0.333431 2.40726Z" fill="white"/>
    <path d="M0.333431 4.04656L0.440574 4.36263H0.772716C0.815573 4.36263 0.831645 4.4162 0.799502 4.44299L0.531645 4.6412L0.633431 4.95727C0.644145 5.00013 0.601288 5.03227 0.563788 5.00549L0.295931 4.81263L0.028074 5.00549C-0.00942601 5.03227 -0.0522833 4.99477 -0.041569 4.95727L0.0602167 4.6412L-0.20764 4.44299C-0.239783 4.4162 -0.223712 4.36263 -0.180855 4.36263H0.151288L0.258431 4.04656C0.258431 4.00906 0.317359 4.00906 0.333431 4.04656Z" fill="white"/>
    <path d="M0.333431 5.69096L0.440574 6.00703H0.772716C0.815573 6.00703 0.831645 6.0606 0.799502 6.08739L0.531645 6.2856L0.633431 6.60167C0.644145 6.64453 0.601288 6.67667 0.563788 6.64988L0.295931 6.45703L0.028074 6.64988C-0.00942601 6.67667 -0.0522833 6.63917 -0.041569 6.60167L0.0602167 6.2856L-0.20764 6.08739C-0.239783 6.0606 -0.223712 6.00703 -0.180855 6.00703H0.151288L0.258431 5.69096C0.258431 5.6481 0.317359 5.6481 0.333431 5.69096Z" fill="white"/>
    <path d="M0.333431 7.33013L0.440574 7.6462H0.772716C0.815573 7.6462 0.831645 7.69977 0.799502 7.72655L0.531645 7.92477L0.633431 8.24084C0.644145 8.2837 0.601288 8.31584 0.563788 8.28905L0.295931 8.0962L0.028074 8.28905C-0.00942601 8.31584 -0.0522833 8.27834 -0.041569 8.24084L0.0602167 7.92477L-0.20764 7.72655C-0.239783 7.69977 -0.223712 7.6462 -0.180855 7.6462H0.151288L0.258431 7.33013C0.258431 7.29263 0.317359 7.29263 0.333431 7.33013Z" fill="white"/>
    <path d="M1.60784 1.59819L1.71499 1.91426H2.04713C2.08999 1.91426 2.10606 1.96784 2.07392 1.99462L1.80606 2.19284L1.90784 2.50891C1.91856 2.55176 1.8757 2.58391 1.8382 2.55712L1.57034 2.36426L1.30249 2.55712C1.26499 2.58391 1.22213 2.54641 1.23285 2.50891L1.33463 2.19284L1.06677 1.99462C1.03463 1.96784 1.0507 1.91426 1.09356 1.91426H1.4257L1.53284 1.59819C1.53284 1.56069 1.59177 1.56069 1.60784 1.59819Z" fill="white"/>
    <path d="M1.60784 3.24223L1.71499 3.5583H2.04713C2.08999 3.5583 2.10606 3.61187 2.07392 3.63865L1.80606 3.83687L1.90784 4.15294C1.91856 4.1958 1.8757 4.22794 1.8382 4.20115L1.57034 4.0083L1.30249 4.20115C1.26499 4.22794 1.22213 4.19044 1.23285 4.15294L1.33463 3.83687L1.06677 3.63865C1.03463 3.61187 1.0507 3.5583 1.09356 3.5583H1.4257L1.53284 3.24223C1.53284 3.19937 1.59177 3.19937 1.60784 3.24223Z" fill="white"/>
    <path d="M1.60784 4.88176L1.71499 5.19783H2.04713C2.08999 5.19783 2.10606 5.25141 2.07392 5.27819L1.80606 5.4764L1.90784 5.79248C1.91856 5.83533 1.8757 5.86748 1.8382 5.84069L1.57034 5.64783L1.30249 5.84069C1.26499 5.86748 1.22213 5.82998 1.23285 5.79248L1.33463 5.4764L1.06677 5.27819C1.03463 5.25141 1.0507 5.19783 1.09356 5.19783H1.4257L1.53284 4.88176C1.53284 4.84426 1.59177 4.84426 1.60784 4.88176Z" fill="white"/>
    <path d="M1.60784 6.52689L1.71499 6.84296H2.04713C2.08999 6.84296 2.10606 6.89654 2.07392 6.92332L1.80606 7.12154L1.90784 7.43761C1.91856 7.48046 1.8757 7.51261 1.8382 7.48582L1.57034 7.29297L1.30249 7.48582C1.26499 7.51261 1.22213 7.47511 1.23285 7.43761L1.33463 7.12154L1.06677 6.92332C1.03463 6.89654 1.0507 6.84296 1.09356 6.84296H1.4257L1.53284 6.52689C1.53284 6.48404 1.59177 6.48404 1.60784 6.52689Z" fill="white"/>
    <path d="M1.60784 8.17118L1.71499 8.48725H2.04713C2.08999 8.48725 2.10606 8.54082 2.07392 8.56761L1.80606 8.76582L1.90784 9.08189C1.91856 9.12475 1.8757 9.15689 1.8382 9.13011L1.57034 8.93725L1.30249 9.13011C1.26499 9.15689 1.22213 9.11939 1.23285 9.08189L1.33463 8.76582L1.06677 8.56761C1.03463 8.54082 1.0507 8.48725 1.09356 8.48725H1.4257L1.53284 8.17118C1.53284 8.12832 1.59177 8.12832 1.60784 8.17118Z" fill="white"/>
    <path d="M2.88421 2.40726L2.99136 2.72334H3.3235C3.36635 2.72334 3.38243 2.77691 3.35028 2.80369L3.08243 3.00191L3.18421 3.31798C3.19493 3.36084 3.15207 3.39298 3.11457 3.36619L2.84671 3.17334L2.57886 3.36619C2.54136 3.39298 2.4985 3.35548 2.50921 3.31798L2.611 3.00191L2.34314 2.80369C2.311 2.77691 2.32707 2.72334 2.36993 2.72334H2.70207L2.80921 2.40726C2.80921 2.36441 2.86814 2.36441 2.88421 2.40726Z" fill="white"/>
    <path d="M2.88421 4.04656L2.99136 4.36263H3.3235C3.36635 4.36263 3.38243 4.4162 3.35028 4.44299L3.08243 4.6412L3.18421 4.95727C3.19493 5.00013 3.15207 5.03227 3.11457 5.00549L2.84671 4.81263L2.57886 5.00549C2.54136 5.03227 2.4985 4.99477 2.50921 4.95727L2.611 4.6412L2.34314 4.44299C2.311 4.4162 2.32707 4.36263 2.36993 4.36263H2.70207L2.80921 4.04656C2.80921 4.00906 2.86814 4.00906 2.88421 4.04656Z" fill="white"/>
    <path d="M2.88421 5.69096L2.99136 6.00703H3.3235C3.36635 6.00703 3.38243 6.0606 3.35028 6.08739L3.08243 6.2856L3.18421 6.60167C3.19493 6.64453 3.15207 6.67667 3.11457 6.64988L2.84671 6.45703L2.57886 6.64988C2.54136 6.67667 2.4985 6.63917 2.50921 6.60167L2.611 6.2856L2.34314 6.08739C2.311 6.0606 2.32707 6.00703 2.36993 6.00703H2.70207L2.80921 5.69096C2.80921 5.6481 2.86814 5.6481 2.88421 5.69096Z" fill="white"/>
    <path d="M2.88421 7.33013L2.99136 7.6462H3.3235C3.36635 7.6462 3.38243 7.69977 3.35028 7.72655L3.08243 7.92477L3.18421 8.24084C3.19493 8.2837 3.15207 8.31584 3.11457 8.28905L2.84671 8.0962L2.57886 8.28905C2.54136 8.31584 2.4985 8.27834 2.50921 8.24084L2.611 7.92477L2.34314 7.72655C2.311 7.69977 2.32707 7.6462 2.36993 7.6462H2.70207L2.80921 7.33013C2.80921 7.29263 2.86814 7.29263 2.88421 7.33013Z" fill="white"/>
    <path d="M4.15228 1.59819L4.25942 1.91426H4.59156C4.63442 1.91426 4.65049 1.96784 4.61835 1.99462L4.35049 2.19284L4.45228 2.50891C4.46299 2.55176 4.42014 2.58391 4.38264 2.55712L4.11478 2.36426L3.84692 2.55712C3.80942 2.58391 3.76656 2.54641 3.77728 2.50891L3.87906 2.19284L3.61121 1.99462C3.57906 1.96784 3.59514 1.91426 3.63799 1.91426H3.97014L4.07728 1.59819C4.08264 1.56069 4.14156 1.56069 4.15228 1.59819Z" fill="white"/>
    <path d="M4.15228 3.24223L4.25942 3.5583H4.59156C4.63442 3.5583 4.65049 3.61187 4.61835 3.63865L4.35049 3.83687L4.45228 4.15294C4.46299 4.1958 4.42014 4.22794 4.38264 4.20115L4.11478 4.0083L3.84692 4.20115C3.80942 4.22794 3.76656 4.19044 3.77728 4.15294L3.87906 3.83687L3.61121 3.63865C3.57906 3.61187 3.59514 3.5583 3.63799 3.5583H3.97014L4.07728 3.24223C4.08264 3.19937 4.14156 3.19937 4.15228 3.24223Z" fill="white"/>
    <path d="M4.15228 4.88176L4.25942 5.19783H4.59156C4.63442 5.19783 4.65049 5.25141 4.61835 5.27819L4.35049 5.4764L4.45228 5.79248C4.46299 5.83533 4.42014 5.86748 4.38264 5.84069L4.11478 5.64783L3.84692 5.84069C3.80942 5.86748 3.76656 5.82998 3.77728 5.79248L3.87906 5.4764L3.61121 5.27819C3.57906 5.25141 3.59514 5.19783 3.63799 5.19783H3.97014L4.07728 4.88176C4.08264 4.84426 4.14156 4.84426 4.15228 4.88176Z" fill="white"/>
    <path d="M4.15228 6.52689L4.25942 6.84296H4.59156C4.63442 6.84296 4.65049 6.89654 4.61835 6.92332L4.35049 7.12154L4.45228 7.43761C4.46299 7.48046 4.42014 7.51261 4.38264 7.48582L4.11478 7.29297L3.84692 7.48582C3.80942 7.51261 3.76656 7.47511 3.77728 7.43761L3.87906 7.12154L3.61121 6.92332C3.57906 6.89654 3.59514 6.84296 3.63799 6.84296H3.97014L4.07728 6.52689C4.08264 6.48404 4.14156 6.48404 4.15228 6.52689Z" fill="white"/>
    <path d="M4.15228 8.17118L4.25942 8.48725H4.59156C4.63442 8.48725 4.65049 8.54082 4.61835 8.56761L4.35049 8.76582L4.45228 9.08189C4.46299 9.12475 4.42014 9.15689 4.38264 9.13011L4.11478 8.93725L3.84692 9.13011C3.80942 9.15689 3.76656 9.11939 3.77728 9.08189L3.87906 8.76582L3.61121 8.56761C3.57906 8.54082 3.59514 8.48725 3.63799 8.48725H3.97014L4.07728 8.17118C4.08264 8.12832 4.14156 8.12832 4.15228 8.17118Z" fill="white"/>
    <path d="M5.42718 2.40726L5.53432 2.72334H5.86647C5.90932 2.72334 5.92539 2.77691 5.89325 2.80369L5.6254 3.00191L5.72718 3.31798C5.73789 3.36084 5.69504 3.39298 5.65754 3.36619L5.38968 3.17334L5.12182 3.36619C5.08432 3.39298 5.04147 3.35548 5.05218 3.31798L5.15397 3.00191L4.88611 2.80369C4.85397 2.77691 4.87004 2.72334 4.9129 2.72334H5.24504L5.35218 2.40726C5.35754 2.36441 5.41647 2.36441 5.42718 2.40726Z" fill="white"/>
    <path d="M5.42718 4.04656L5.53432 4.36263H5.86647C5.90932 4.36263 5.92539 4.4162 5.89325 4.44299L5.6254 4.6412L5.72718 4.95727C5.73789 5.00013 5.69504 5.03227 5.65754 5.00549L5.38968 4.81263L5.12182 5.00549C5.08432 5.03227 5.04147 4.99477 5.05218 4.95727L5.15397 4.6412L4.88611 4.44299C4.85397 4.4162 4.87004 4.36263 4.9129 4.36263H5.24504L5.35218 4.04656C5.35754 4.00906 5.41647 4.00906 5.42718 4.04656Z" fill="white"/>
    <path d="M5.42718 5.69096L5.53432 6.00703H5.86647C5.90932 6.00703 5.92539 6.0606 5.89325 6.08739L5.6254 6.2856L5.72718 6.60167C5.73789 6.64453 5.69504 6.67667 5.65754 6.64988L5.38968 6.45703L5.12182 6.64988C5.08432 6.67667 5.04147 6.63917 5.05218 6.60167L5.15397 6.2856L4.88611 6.08739C4.85397 6.0606 4.87004 6.00703 4.9129 6.00703H5.24504L5.35218 5.69096C5.35754 5.6481 5.41647 5.6481 5.42718 5.69096Z" fill="white"/>
    <path d="M5.42718 7.33013L5.53432 7.6462H5.86647C5.90932 7.6462 5.92539 7.69977 5.89325 7.72655L5.6254 7.92477L5.72718 8.24084C5.73789 8.2837 5.69504 8.31584 5.65754 8.28905L5.38968 8.0962L5.12182 8.28905C5.08432 8.31584 5.04147 8.27834 5.05218 8.24084L5.15397 7.92477L4.88611 7.72655C4.85397 7.69977 4.87004 7.6462 4.9129 7.6462H5.24504L5.35218 7.33013C5.35754 7.29263 5.41647 7.29263 5.42718 7.33013Z" fill="white"/>
    <path d="M6.70208 1.59819L6.80923 1.91426H7.14137C7.18423 1.91426 7.2003 1.96784 7.16815 1.99462L6.9003 2.19284L7.00208 2.50891C7.0128 2.55176 6.96994 2.58391 6.93244 2.55712L6.66458 2.36426L6.39673 2.55712C6.35923 2.58391 6.31637 2.54641 6.32708 2.50891L6.42887 2.19284L6.16101 1.99462C6.12887 1.96784 6.14494 1.91426 6.1878 1.91426H6.51994L6.62708 1.59819C6.63244 1.56069 6.69137 1.56069 6.70208 1.59819Z" fill="white"/>
    <path d="M6.70208 3.24223L6.80923 3.5583H7.14137C7.18423 3.5583 7.2003 3.61187 7.16815 3.63865L6.9003 3.83687L7.00208 4.15294C7.0128 4.1958 6.96994 4.22794 6.93244 4.20115L6.66458 4.0083L6.39673 4.20115C6.35923 4.22794 6.31637 4.19044 6.32708 4.15294L6.42887 3.83687L6.16101 3.63865C6.12887 3.61187 6.14494 3.5583 6.1878 3.5583H6.51994L6.62708 3.24223C6.63244 3.19937 6.69137 3.19937 6.70208 3.24223Z" fill="white"/>
    <path d="M6.70208 4.88176L6.80923 5.19783H7.14137C7.18423 5.19783 7.2003 5.25141 7.16815 5.27819L6.9003 5.4764L7.00208 5.79248C7.0128 5.83533 6.96994 5.86748 6.93244 5.84069L6.66458 5.64783L6.39673 5.84069C6.35923 5.86748 6.31637 5.82998 6.32708 5.79248L6.42887 5.4764L6.16101 5.27819C6.12887 5.25141 6.14494 5.19783 6.1878 5.19783H6.51994L6.62708 4.88176C6.63244 4.84426 6.69137 4.84426 6.70208 4.88176Z" fill="white"/>
    <path d="M6.70208 6.52689L6.80923 6.84296H7.14137C7.18423 6.84296 7.2003 6.89654 7.16815 6.92332L6.9003 7.12154L7.00208 7.43761C7.0128 7.48046 6.96994 7.51261 6.93244 7.48582L6.66458 7.29297L6.39673 7.48582C6.35923 7.51261 6.31637 7.47511 6.32708 7.43761L6.42887 7.12154L6.16101 6.92332C6.12887 6.89654 6.14494 6.84296 6.1878 6.84296H6.51994L6.62708 6.52689C6.63244 6.48404 6.69137 6.48404 6.70208 6.52689Z" fill="white"/>
    <path d="M6.70208 8.17118L6.80923 8.48725H7.14137C7.18423 8.48725 7.2003 8.54082 7.16815 8.56761L6.9003 8.76582L7.00208 9.08189C7.0128 9.12475 6.96994 9.15689 6.93244 9.13011L6.66458 8.93725L6.39673 9.13011C6.35923 9.15689 6.31637 9.11939 6.32708 9.08189L6.42887 8.76582L6.16101 8.56761C6.12887 8.54082 6.14494 8.48725 6.1878 8.48725H6.51994L6.62708 8.17118C6.63244 8.12832 6.69137 8.12832 6.70208 8.17118Z" fill="white"/>
    <path d="M22.6073 12.9607H-4.82129V14.3428H22.6073V12.9607Z" fill="white"/>
  </g>
</svg>