<svg xmlns="http://www.w3.org/2000/svg" width="31" height="30" viewBox="0 0 31 30" fill="none">
  <path d="M17.375 25C17.375 25 18.625 25 19.875 27.5C19.875 27.5 23.8456 21.25 27.375 20" stroke="#1E3A8A" stroke-width="1.5" stroke-linecap="round" stroke-linejoin="round"/>
  <path d="M9.25 20H14.25M9.25 13.75H19.25" stroke="#1E3A8A" stroke-width="1.5" stroke-linecap="round"/>
  <path d="M8.625 4.375C6.68025 4.43334 5.52077 4.6498 4.71847 5.45284C3.62012 6.55221 3.62012 8.32163 3.62012 11.8605V19.993C3.62012 23.5319 3.62012 25.3013 4.71847 26.4006C5.81682 27.5 7.58459 27.5 11.1201 27.5H14.2451M19.8653 4.375C21.81 4.43334 22.9695 4.6498 23.7718 5.45285C24.8701 6.55221 24.8701 8.32163 24.8701 11.8605V16.875" stroke="#1E3A8A" stroke-width="1.5" stroke-linecap="round"/>
  <path d="M8.62012 4.6875C8.62012 3.47938 9.5995 2.5 10.8076 2.5H17.6826C18.8908 2.5 19.8701 3.47938 19.8701 4.6875C19.8701 5.89562 18.8908 6.875 17.6826 6.875H10.8076C9.5995 6.875 8.62012 5.89562 8.62012 4.6875Z" stroke="#1E3A8A" stroke-width="1.5" stroke-linejoin="round"/>
</svg>