<svg width="40" height="40" viewBox="0 0 40 40" fill="none" xmlns="http://www.w3.org/2000/svg">
<path d="M4 0.5H36C37.933 0.5 39.5 2.067 39.5 4V36C39.5 37.933 37.933 39.5 36 39.5H4C2.067 39.5 0.5 37.933 0.5 36V4C0.500001 2.067 2.067 0.5 4 0.5Z" fill="white"/>
<path d="M4 0.5H36C37.933 0.5 39.5 2.067 39.5 4V36C39.5 37.933 37.933 39.5 36 39.5H4C2.067 39.5 0.5 37.933 0.5 36V4C0.500001 2.067 2.067 0.5 4 0.5Z" stroke="#E8E8E8"/>
<path d="M17.3812 20.4218C15.3075 18.8713 13.8297 17.166 13.0228 16.2072C12.773 15.9104 12.6912 15.6933 12.6419 15.3107C12.4734 14.0007 12.3892 13.3457 12.7733 12.9228C13.1574 12.5 13.8367 12.5 15.1953 12.5H24.8048C26.1633 12.5 26.8426 12.5 27.2267 12.9228C27.6108 13.3457 27.5266 14.0007 27.3581 15.3107C27.3088 15.6933 27.227 15.9105 26.9772 16.2072C26.1692 17.1672 24.6884 18.8756 22.6105 20.4279C22.4225 20.5684 22.2986 20.7973 22.2756 21.0512C22.0698 23.3267 21.8799 24.573 21.7618 25.2035C21.5711 26.2214 20.1277 26.8338 19.355 27.3803C18.8951 27.7055 18.3369 27.3183 18.2773 26.8148C18.1637 25.8551 17.9497 23.9053 17.7161 21.0512C17.6951 20.7949 17.5707 20.5634 17.3812 20.4218Z" stroke="#1F1F1F" stroke-width="1.5" stroke-linecap="round" stroke-linejoin="round"/>
</svg>
